<svg width="85" height="42" viewBox="0 0 85 42" fill="none" xmlns="http://www.w3.org/2000/svg">
<path d="M49.4568 0.444651C49.4438 0.489992 49.4373 5.47762 49.4438 11.5211C49.4568 19.7928 49.4827 22.5262 49.541 22.5845C49.5799 22.6234 49.5993 22.7465 49.5799 22.876C49.5604 22.9991 49.5734 23.0963 49.6058 23.0963C49.6381 23.0963 49.7029 23.3165 49.7483 23.5821C49.7936 23.8476 49.8519 24.0679 49.8778 24.0679C49.9296 24.0679 50.0462 24.5602 50.0203 24.6703C50.0138 24.7027 50.0397 24.7027 50.0851 24.6832C50.124 24.6508 50.1499 24.6832 50.1369 24.7545C50.1175 24.884 50.2665 25.2338 50.3377 25.2338C50.3895 25.2338 50.5644 25.752 50.545 25.8362C50.532 25.8686 50.5579 25.8751 50.5968 25.8492C50.6292 25.8297 50.6616 25.8427 50.6616 25.8751C50.6616 26.0176 50.6745 26.0435 50.7652 26.0953C50.817 26.1212 50.8559 26.2184 50.8559 26.3026C50.8559 26.3933 50.9142 26.4904 50.9919 26.5293C51.0697 26.5746 51.1085 26.6459 51.0891 26.6977C51.0697 26.7495 51.0956 26.7884 51.1409 26.7884C51.1927 26.7884 51.264 26.8726 51.3029 26.9827C51.3352 27.0864 51.4 27.177 51.4389 27.177C51.4777 27.177 51.4972 27.2029 51.4777 27.2353C51.4583 27.2612 51.5296 27.3649 51.6332 27.462C51.7433 27.5527 51.8275 27.6758 51.8275 27.7276C51.8275 27.7794 51.8534 27.8248 51.8858 27.8248C51.9506 27.8248 52.7149 28.5697 53.0129 28.913C53.1101 29.0296 53.2202 29.1073 53.2461 29.0879C53.2785 29.0685 53.3821 29.1462 53.4793 29.2628C53.5764 29.3794 53.6347 29.4377 53.6088 29.3988C53.5829 29.3405 53.6023 29.3275 53.6671 29.3535C53.7189 29.3729 53.7837 29.4441 53.8031 29.5089C53.8226 29.5802 53.8809 29.619 53.9262 29.5996C53.9716 29.5802 54.0299 29.6126 54.0493 29.6644C54.0752 29.7227 54.1335 29.768 54.1853 29.768C54.2307 29.768 54.2889 29.8069 54.3084 29.8587C54.3278 29.9105 54.4315 29.9688 54.5416 29.9947C54.6582 30.0206 54.7229 30.066 54.7035 30.1048C54.6776 30.1437 54.697 30.1631 54.7488 30.1437C54.8007 30.1243 54.8719 30.1437 54.9173 30.1826C55.1375 30.3769 55.2023 30.4093 55.4549 30.4805C55.6103 30.5194 55.7723 30.5906 55.8176 30.636C55.863 30.6813 56.0184 30.7396 56.1674 30.7655C56.3099 30.785 56.42 30.8303 56.4006 30.8627C56.3812 30.8886 56.5431 30.9469 56.7633 30.9858C56.9836 31.0246 57.1844 31.0959 57.2168 31.1412C57.2556 31.206 57.2686 31.206 57.2686 31.1283C57.2686 31.0441 57.2815 31.0441 57.3269 31.1218C57.3593 31.1736 57.4435 31.1995 57.5147 31.1736C57.5924 31.1607 57.6572 31.1671 57.6702 31.1995C57.6831 31.2254 57.9552 31.2708 58.2855 31.2967C58.6159 31.3226 58.8685 31.3679 58.8491 31.3939C58.8296 31.4262 59.0628 31.4521 59.3673 31.4521H59.9243V29.768V28.0839H59.4709C59.1924 28.0839 59.0175 28.058 59.0175 28.0126C59.0175 27.9738 58.9138 27.9543 58.7713 27.9608C58.6353 27.9738 58.4993 27.9608 58.4669 27.9414C58.428 27.9219 58.2855 27.8831 58.143 27.8636C58.007 27.8377 57.8645 27.7859 57.8386 27.7406C57.7997 27.6823 57.7868 27.6888 57.7868 27.76C57.7868 27.8248 57.7673 27.8313 57.7349 27.7859C57.6896 27.7211 57.3074 27.5916 57.2945 27.6434C57.2945 27.6564 57.2427 27.624 57.1844 27.5722C57.1196 27.5268 57.0742 27.5074 57.0742 27.5268C57.0742 27.5527 57.0289 27.5268 56.9706 27.475C56.9188 27.4167 56.8151 27.3714 56.7504 27.3714C56.6791 27.3714 56.6014 27.3325 56.5755 27.2807C56.5496 27.2353 56.4135 27.1576 56.2775 27.1187C56.148 27.0734 56.0508 27.0151 56.0702 26.9827C56.0897 26.9568 56.0119 26.8985 55.9083 26.8596C55.7982 26.8273 55.714 26.769 55.714 26.7301C55.714 26.6977 55.6557 26.6524 55.5844 26.6265C55.5197 26.607 55.3189 26.4451 55.1504 26.2702C54.982 26.0953 54.8201 25.9722 54.7942 25.9917C54.7618 26.0046 54.7488 25.9917 54.7553 25.9593C54.7683 25.9269 54.6387 25.765 54.4703 25.5965C54.2954 25.4346 54.1594 25.2532 54.1594 25.2014C54.1594 25.1496 54.127 25.1043 54.0946 25.1043C54.0558 25.1043 53.9845 24.9877 53.9262 24.8452C53.8679 24.6962 53.8031 24.599 53.7837 24.612C53.7254 24.6767 53.5829 24.4306 53.5764 24.2687C53.5764 24.1845 53.5117 24.0614 53.4404 23.9966C53.3562 23.9254 53.3173 23.8347 53.3432 23.7764C53.3692 23.7116 53.3562 23.6857 53.3109 23.7181C53.259 23.744 53.2526 23.7116 53.2849 23.6144C53.3173 23.5173 53.3109 23.4849 53.259 23.5108C53.2137 23.5367 53.1748 23.459 53.1489 23.2906C53.123 23.1481 53.0777 23.0315 53.0453 23.0315C53.0064 23.0315 52.9999 22.9602 53.0194 22.876C53.0388 22.7918 53.0323 22.7076 52.9935 22.6947C52.9611 22.6817 52.9093 22.442 52.8898 22.157C52.8639 21.872 52.825 21.6259 52.8056 21.6064C52.7862 21.587 52.7732 18.2447 52.7862 14.1703L52.8056 6.77311H56.3293H59.8595V5.15375V3.53439H56.3617H52.8639V1.94742V0.360445H51.1798C49.8454 0.360445 49.4827 0.379877 49.4568 0.444651Z" fill="#E4DDD4"/>
<path d="M34.0414 10.4587C34.0803 10.5105 33.6139 10.5882 33.2447 10.5947C33.154 10.5947 33.0633 10.6336 33.0309 10.6724C33.005 10.7243 32.9791 10.7243 32.9791 10.6854C32.9791 10.6465 32.8949 10.6271 32.7848 10.6465C32.6812 10.6595 32.6034 10.6984 32.6229 10.7243C32.6423 10.7502 32.5257 10.7955 32.3638 10.8149C32.2018 10.8409 32.0723 10.8862 32.0723 10.9186C32.0723 10.9445 32.014 10.9574 31.9427 10.938C31.8715 10.9186 31.8132 10.9315 31.8132 10.9704C31.8132 11.0028 31.7096 11.0546 31.5865 11.074C31.4634 11.1 31.3598 11.1453 31.3598 11.1777C31.3598 11.2036 31.3015 11.2165 31.2302 11.1971C31.159 11.1777 31.1007 11.1906 31.1007 11.223C31.1007 11.2554 30.9841 11.3267 30.8416 11.372C30.6991 11.4173 30.5825 11.4756 30.5825 11.5016C30.5825 11.521 30.4788 11.5793 30.3558 11.6246C30.2327 11.67 30.142 11.7347 30.1614 11.7671C30.1874 11.7995 30.155 11.8254 30.1031 11.8254C30.0449 11.8254 29.9995 11.8578 29.9995 11.8967C29.9995 11.9291 29.9736 11.9485 29.9412 11.9291C29.857 11.8772 29.6692 11.955 29.7145 12.0262C29.7339 12.0586 29.7015 12.0845 29.6432 12.0845C29.5914 12.0845 29.5267 12.1234 29.5072 12.1752C29.4878 12.227 29.436 12.2594 29.3842 12.24C29.3388 12.2205 29.287 12.2529 29.2676 12.3048C29.2416 12.3631 29.1834 12.4084 29.1315 12.4084C29.0862 12.4084 28.9955 12.4796 28.9372 12.5703C28.8789 12.661 28.8012 12.7193 28.7753 12.7064C28.717 12.6675 28.3931 12.9655 28.2765 13.1598C28.2312 13.2246 28.1534 13.2764 28.0951 13.2764C28.0368 13.2699 28.0109 13.2893 28.0304 13.3217C28.0498 13.3541 27.9915 13.4059 27.9008 13.4448C27.8037 13.4772 27.7389 13.5355 27.7454 13.5679C27.7713 13.6585 27.4798 14.0278 27.3826 14.0278C27.3049 14.0278 27.2077 14.1638 27.1883 14.2998C27.1818 14.3192 27.1041 14.4034 27.0005 14.4812C26.9033 14.5589 26.8385 14.6496 26.8644 14.682C26.8839 14.7144 26.8515 14.7597 26.7997 14.7791C26.7414 14.7986 26.696 14.8569 26.696 14.9087C26.696 14.9605 26.6701 14.9994 26.6312 14.9994C26.5989 14.9994 26.5082 15.1289 26.4369 15.2909C26.3657 15.4528 26.275 15.5823 26.2361 15.5823C26.1973 15.5823 26.1908 15.6147 26.2102 15.6471C26.2296 15.686 26.2102 15.7313 26.1584 15.7508C26.1066 15.7702 26.0288 15.8997 25.9835 16.0422C25.9382 16.1783 25.8799 16.2949 25.8475 16.2949C25.8086 16.2949 25.7762 16.3726 25.692 16.6965C25.6791 16.7288 25.6726 16.8001 25.6661 16.8584C25.6596 16.962 25.6467 16.962 25.5949 16.8778C25.543 16.8001 25.5301 16.8131 25.5236 16.9426C25.5171 17.0333 25.5171 17.1499 25.5236 17.2147C25.5301 17.273 25.5042 17.3377 25.4653 17.3636C25.4329 17.3831 25.4005 17.4608 25.4005 17.532C25.4005 17.6033 25.3681 17.6422 25.3358 17.6227C25.2904 17.5968 25.2775 17.6357 25.3098 17.7458C25.3358 17.843 25.3228 17.9142 25.2839 17.9142C25.2451 17.9142 25.1932 18.0762 25.1673 18.277C25.135 18.5361 25.109 18.6138 25.0637 18.5555C25.0248 18.4907 25.0119 18.5555 25.0313 18.7369C25.0507 18.9117 25.0378 19.0154 24.986 19.0348C24.9342 19.0542 24.9082 21.8978 24.8953 30.2408L24.8759 41.4208L26.5017 41.4403C27.3891 41.4532 28.1534 41.4468 28.1858 41.4403C28.2312 41.4208 28.2506 37.8064 28.2506 30.6683C28.2506 24.7544 28.2571 19.8963 28.2765 19.8704C28.2895 19.8445 28.3219 19.6243 28.3478 19.3781C28.3801 19.0542 28.4125 18.9571 28.4579 19.0219C28.5032 19.0866 28.5097 19.0478 28.4838 18.8988C28.4644 18.7822 28.4708 18.698 28.5032 18.7174C28.5356 18.7369 28.5745 18.6397 28.6004 18.4907C28.6263 18.3288 28.6652 18.251 28.7105 18.277C28.7558 18.3029 28.7688 18.2705 28.7364 18.1798C28.7105 18.0956 28.7299 18.0049 28.7947 17.9401C28.853 17.8883 28.8983 17.7976 28.8983 17.7458C28.8983 17.694 28.9243 17.6551 28.9631 17.6551C28.9955 17.6551 29.0603 17.5385 29.0991 17.396C29.1445 17.2535 29.2028 17.1369 29.2352 17.1369C29.2611 17.1369 29.3323 17.0203 29.3906 16.8778C29.4489 16.7353 29.5202 16.6187 29.5526 16.6187C29.585 16.6187 29.6368 16.5669 29.6562 16.5021C29.6821 16.4438 29.8052 16.2949 29.9283 16.1718C30.0578 16.0487 30.155 15.9256 30.142 15.8933C30.1355 15.8609 30.1809 15.822 30.2392 15.7961C30.3039 15.7767 30.4594 15.6406 30.589 15.5046C30.7185 15.3686 30.8545 15.2585 30.8934 15.2585C30.9387 15.2585 31.0035 15.2002 31.0489 15.1289C31.0942 15.0577 31.1719 14.9994 31.2173 14.9994C31.2626 14.9994 31.3144 14.9605 31.3339 14.9087C31.3533 14.8569 31.4569 14.7921 31.5606 14.7727C31.6642 14.7467 31.7743 14.6885 31.8002 14.6302C31.8326 14.5783 31.8715 14.5395 31.8844 14.5459C31.8974 14.5524 31.9946 14.5265 32.0917 14.4877C32.1954 14.4488 32.3184 14.4164 32.3703 14.4164C32.4221 14.4164 32.4609 14.3905 32.4609 14.3516C32.4609 14.3192 32.584 14.2609 32.7395 14.2221C32.8884 14.1832 33.1022 14.1055 33.2188 14.0537C33.3289 14.0018 33.4973 13.963 33.588 13.963C33.6787 13.963 33.7564 13.9371 33.7564 13.9047C33.7564 13.8658 33.8601 13.8593 33.9831 13.8788C34.1192 13.8982 34.2098 13.8917 34.2098 13.8464C34.2098 13.8075 34.5402 13.7751 35.1167 13.7751C35.8162 13.7687 36.0235 13.7816 36.0235 13.8464C36.0235 13.9047 36.043 13.9047 36.0883 13.8334C36.1401 13.7557 36.166 13.7492 36.2114 13.8205C36.2373 13.8723 36.3474 13.8982 36.451 13.8917C36.5547 13.8788 36.6713 13.8853 36.7037 13.9112C36.7425 13.9306 36.9045 13.9695 37.0793 13.9889C37.2478 14.0148 37.3838 14.0601 37.3838 14.0925C37.3838 14.1314 37.5004 14.1767 37.6494 14.1962C37.7919 14.2221 37.9473 14.2739 37.9862 14.3128C38.0315 14.3581 38.187 14.4229 38.3424 14.4682C38.4914 14.5136 38.6145 14.5719 38.6145 14.6042C38.6145 14.6625 38.9449 14.831 39.0226 14.818C39.0485 14.8115 39.0679 14.8374 39.0679 14.8698C39.0679 14.9087 39.1392 14.967 39.2299 14.9994C39.3205 15.0318 39.3918 15.0901 39.3918 15.1289C39.3918 15.1613 39.4242 15.1937 39.463 15.1937C39.5408 15.1937 39.8646 15.4852 40.2727 15.9062C40.3958 16.0293 40.5448 16.1847 40.6096 16.243C40.6678 16.3078 40.7391 16.3791 40.7715 16.405C40.9658 16.6058 41.2703 17.0916 41.2703 17.2017C41.2703 17.2794 41.3026 17.3183 41.335 17.2989C41.3933 17.26 41.4128 17.3053 41.3933 17.4414C41.3933 17.4608 41.4322 17.5061 41.4905 17.5385C41.5423 17.5709 41.6395 17.7588 41.7042 17.966C41.769 18.1668 41.8403 18.3547 41.8727 18.3741C41.905 18.3935 41.9633 18.6267 42.0152 18.8923C42.0605 19.1579 42.1058 19.3328 42.1058 19.281C42.1253 19.0154 42.1771 19.3328 42.2354 20.0194C42.2743 20.5117 42.2743 21.0558 42.2354 21.5092C42.1965 21.8978 42.1706 22.2735 42.1706 22.3318C42.1706 22.3966 42.1447 22.4484 42.1188 22.4484C42.0929 22.4484 42.0346 22.6492 41.9892 22.9018C41.9439 23.148 41.8856 23.3553 41.8597 23.3553C41.8338 23.3553 41.7625 23.5107 41.7042 23.705C41.6395 23.8929 41.5229 24.1261 41.4322 24.2232C41.3415 24.3204 41.2703 24.45 41.2703 24.5147C41.2703 24.5795 41.2249 24.6702 41.1731 24.7155C41.1213 24.7609 41.0759 24.8321 41.0759 24.8775C41.0759 24.9163 41.0047 24.9941 40.914 25.0394C40.8298 25.0847 40.7715 25.1495 40.7909 25.1819C40.8298 25.2402 39.7869 26.3025 39.7092 26.2831C39.6898 26.2831 39.5796 26.3608 39.463 26.4709C39.3465 26.5746 39.2104 26.6588 39.1586 26.6588C39.1068 26.6588 39.0744 26.6847 39.1003 26.7171C39.1197 26.7494 39.0226 26.8142 38.893 26.8596C38.757 26.8984 38.6275 26.9697 38.6015 27.015C38.5756 27.0604 38.4461 27.1187 38.323 27.1381C38.1999 27.164 38.0963 27.2093 38.0963 27.2417C38.0963 27.2741 37.9732 27.3389 37.8243 27.3842C37.6688 27.4231 37.5328 27.4814 37.5133 27.5138C37.4939 27.5397 37.2607 27.598 36.9951 27.6433C36.7296 27.6887 36.4899 27.747 36.4705 27.7794C36.451 27.8117 36.4057 27.8312 36.3733 27.8247C36.3409 27.8247 36.0624 27.8377 35.7515 27.8636L35.1815 27.9089V29.5801V31.2577H35.5701C35.7839 31.2577 35.9588 31.2318 35.9588 31.1994C35.9588 31.1606 36.166 31.1541 36.4446 31.1735C36.762 31.1994 36.9304 31.1865 36.9304 31.1411C36.9304 31.1088 37.1053 31.0569 37.319 31.031C37.5328 31.0051 37.7077 30.9663 37.7077 30.9403C37.7077 30.9144 37.7983 30.908 37.9085 30.9209C38.051 30.9403 38.1028 30.9274 38.0704 30.8756C38.0445 30.8302 38.0769 30.8043 38.1546 30.7978C38.2323 30.7914 38.323 30.7784 38.3554 30.7719C38.3943 30.7655 38.4785 30.7525 38.5432 30.746C38.6145 30.746 38.7117 30.6942 38.7635 30.6424C38.8412 30.5711 38.8736 30.5647 38.893 30.6294C38.9189 30.6877 38.9319 30.6877 38.9319 30.623C38.9384 30.5841 38.9837 30.5452 39.042 30.5452C39.0938 30.5452 39.1262 30.5258 39.1133 30.4999C39.0938 30.4675 39.1651 30.4481 39.2622 30.4416C39.3659 30.4351 39.4954 30.3898 39.5537 30.325C39.612 30.2667 39.7027 30.2214 39.7545 30.2214C39.8063 30.2214 39.8452 30.189 39.8452 30.1501C39.8452 30.1177 39.8711 30.0983 39.91 30.1242C39.9424 30.1436 40.0266 30.1112 40.0978 30.0465C40.1691 29.9882 40.2922 29.9299 40.3764 29.9169C40.4541 29.904 40.5448 29.8521 40.5707 29.8068C40.5966 29.755 40.6938 29.6967 40.7844 29.6772C40.9334 29.6384 41.0176 29.5801 41.3545 29.2627C41.4192 29.2044 41.5034 29.1461 41.5358 29.1461C41.5682 29.1396 41.62 29.1331 41.6459 29.1267C41.6783 29.1267 41.7366 29.0425 41.782 28.9518C41.8208 28.8611 41.8856 28.7963 41.931 28.8093C42.0152 28.8417 43.0839 27.8053 43.0839 27.7016C43.0839 27.6628 43.1681 27.5526 43.2783 27.462C43.3819 27.3648 43.4531 27.2612 43.4337 27.2353C43.4208 27.2029 43.4596 27.1446 43.5374 27.0992C43.6086 27.0539 43.6669 26.9762 43.6669 26.9308C43.6669 26.8855 43.6928 26.8596 43.7252 26.879C43.7576 26.8984 43.8159 26.8272 43.8547 26.7235C43.8871 26.6134 43.9519 26.5292 43.9908 26.5292C44.0296 26.5292 44.0426 26.4968 44.0167 26.4515C43.9908 26.4126 44.0232 26.3414 44.0879 26.2895C44.1592 26.2442 44.1851 26.2053 44.1592 26.2053C44.0944 26.2053 44.3665 25.7454 44.4895 25.6418C44.5802 25.5705 44.6191 25.4475 44.632 25.2467C44.6385 25.2013 44.6644 25.1754 44.6968 25.1949C44.7292 25.2208 44.7422 25.1819 44.7227 25.1171C44.7098 25.0459 44.7616 24.9163 44.8588 24.7997C44.9753 24.6637 45.0077 24.5601 44.9818 24.4564C44.9494 24.3398 44.9624 24.3204 45.0272 24.3593C45.0919 24.3981 45.1049 24.3852 45.0725 24.301C45.0466 24.2297 45.079 24.1131 45.1632 23.9965C45.2409 23.8864 45.2863 23.7439 45.2668 23.6791C45.2474 23.6079 45.2604 23.5496 45.2927 23.5496C45.3251 23.5496 45.351 23.4719 45.351 23.3682C45.351 23.2711 45.3964 23.1091 45.4482 23.012C45.5 22.9148 45.513 22.85 45.4806 22.8695C45.4417 22.8954 45.4158 22.8759 45.4158 22.8435C45.4158 22.8047 45.4482 22.7723 45.4871 22.7723C45.5389 22.7723 45.5454 22.6881 45.5195 22.5197C45.5 22.3707 45.5065 22.2541 45.5454 22.2411C45.5842 22.2282 45.6101 21.8201 45.6101 21.1853C45.6037 20.6153 45.6101 19.9805 45.6101 19.7732C45.6166 19.5724 45.5907 19.404 45.5583 19.404C45.5195 19.404 45.5065 19.2939 45.5259 19.1449C45.5454 18.9895 45.5389 18.8858 45.4935 18.8858C45.4612 18.8858 45.4093 18.7239 45.3834 18.5296C45.364 18.3353 45.3122 18.1604 45.2798 18.1409C45.2474 18.115 45.2409 18.0243 45.2604 17.9336C45.2927 17.8171 45.2798 17.7782 45.228 17.8106C45.1826 17.843 45.1567 17.8106 45.1567 17.7264C45.1567 17.6551 45.1243 17.5774 45.0855 17.558C45.0466 17.532 45.0336 17.4738 45.0531 17.4219C45.0725 17.3701 45.0531 17.3312 45.0207 17.3312C44.9818 17.3312 44.9624 17.273 44.9818 17.2017C45.0013 17.1304 44.9883 17.0851 44.9559 17.111C44.9235 17.1304 44.8976 17.0851 44.8976 17.0139C44.8976 16.9426 44.8717 16.8713 44.8393 16.8519C44.8069 16.8325 44.7486 16.7224 44.7098 16.6187C44.6709 16.5021 44.6709 16.4374 44.7033 16.4568C44.794 16.5151 44.5608 16.0876 44.4442 15.9839C44.36 15.9062 44.36 15.8997 44.4442 15.9386C44.496 15.9645 44.4831 15.9321 44.4183 15.8803C44.347 15.822 44.3146 15.7767 44.3535 15.7767C44.3859 15.7767 44.36 15.7443 44.3017 15.7054C44.2369 15.673 44.1851 15.6018 44.1851 15.5564C44.1851 15.5046 44.1398 15.4334 44.0879 15.388C44.0361 15.3427 44.0102 15.2844 44.0296 15.252C44.0491 15.2196 44.0296 15.1937 43.9973 15.1937C43.9584 15.1937 43.9325 15.1743 43.939 15.1419C43.9649 15.0706 43.7576 14.7986 43.7122 14.8504C43.6863 14.8698 43.6669 14.8504 43.6669 14.7921C43.6669 14.7403 43.6086 14.6431 43.5374 14.5783C43.4661 14.5136 43.4078 14.4358 43.4078 14.397C43.4078 14.3646 43.3366 14.2804 43.2459 14.2091C43.1552 14.1379 43.0839 14.0472 43.0839 13.9954C43.0839 13.8917 42.0605 12.8618 41.9569 12.8618C41.9115 12.8618 41.8079 12.7776 41.7237 12.674C41.633 12.5768 41.5293 12.4991 41.4905 12.5185C41.4581 12.5315 41.3868 12.4667 41.335 12.376C41.2767 12.2724 41.2314 12.24 41.199 12.2853C41.1731 12.3371 41.1277 12.3177 41.0824 12.2205C41.0371 12.1493 40.9658 12.0845 40.914 12.0845C40.8622 12.0845 40.8168 12.0521 40.8168 12.0133C40.8168 11.9744 40.778 11.955 40.7261 11.9744C40.6743 11.9938 40.616 11.9679 40.5966 11.9161C40.5772 11.8643 40.5124 11.8254 40.4606 11.8254C40.4023 11.8254 40.3764 11.7995 40.3958 11.7607C40.4152 11.7283 40.2986 11.6635 40.1432 11.6246C39.9812 11.5858 39.8582 11.5275 39.8776 11.5016C39.897 11.4756 39.7804 11.4173 39.6185 11.372C39.4566 11.3267 39.3465 11.2684 39.3659 11.236C39.3853 11.2036 39.2752 11.1582 39.1327 11.1388C38.9837 11.1129 38.8283 11.0546 38.7829 11.0093C38.7376 10.9639 38.5821 10.9056 38.4461 10.8797C38.3101 10.8473 38.174 10.8214 38.1481 10.8149C38.1157 10.8085 38.038 10.802 37.9603 10.7955C37.8826 10.7955 37.8502 10.7631 37.8761 10.7178C37.902 10.6724 37.8502 10.653 37.7336 10.666C37.6299 10.6789 37.5133 10.666 37.4809 10.6465C37.4421 10.6206 37.2283 10.5818 37.0081 10.5558C36.7879 10.5364 36.6065 10.4846 36.6065 10.4587C36.6065 10.4263 36.0235 10.4004 35.3045 10.4004C34.5531 10.4004 34.022 10.4263 34.0414 10.4587Z" fill="#E4DDD4"/>
<path d="M9.62783 10.7245C9.65374 10.7634 9.51124 10.7893 9.25214 10.7893C9.02543 10.7893 8.81815 10.8087 8.79224 10.8346C8.76633 10.8605 8.64326 10.8735 8.52019 10.8605C8.4036 10.854 8.29996 10.867 8.29996 10.8994C8.29996 10.9318 8.18336 10.9447 8.04086 10.9318C7.89188 10.9188 7.78176 10.9318 7.78176 10.9706C7.78176 11.0095 7.66517 11.0548 7.52267 11.0808C7.38016 11.1067 7.26357 11.1455 7.26357 11.1779C7.26357 11.2038 7.20527 11.2168 7.13402 11.1974C7.06277 11.1779 7.00447 11.1909 7.00447 11.2297C7.00447 11.2945 6.8231 11.3658 6.53162 11.4111C6.42798 11.4241 6.30491 11.4824 6.25309 11.5342C6.19479 11.586 6.11058 11.6313 6.05877 11.6313C6.00695 11.6313 5.96808 11.6573 5.96808 11.6896C5.96808 11.722 5.90331 11.735 5.82558 11.7091C5.73489 11.6896 5.70251 11.7026 5.73489 11.7479C5.7608 11.7933 5.71546 11.8386 5.61182 11.8645C5.52114 11.884 5.44989 11.9293 5.44989 11.9617C5.44989 11.9941 5.40454 11.9941 5.33977 11.9746C5.275 11.9487 5.24909 11.9617 5.275 12.0006C5.30738 12.0459 5.24261 12.0912 5.11954 12.1171C5.00942 12.1431 4.90578 12.2014 4.88635 12.2532C4.86692 12.305 4.8151 12.3439 4.76328 12.3439C4.71794 12.3439 4.65316 12.3957 4.6143 12.454C4.58191 12.5188 4.53009 12.5511 4.51066 12.5252C4.48475 12.4993 4.39406 12.5576 4.30338 12.6548C4.21917 12.7519 4.16088 12.7908 4.18679 12.7519C4.2127 12.7001 4.19326 12.6807 4.13497 12.7066C4.08315 12.726 4.01189 12.8102 3.96655 12.9009C3.92769 12.9916 3.85644 13.0564 3.81109 13.0369C3.77223 13.024 3.60382 13.1535 3.44836 13.3284C3.28642 13.4968 3.11801 13.6393 3.07267 13.6393C3.02732 13.6393 2.98846 13.6782 2.98846 13.7236C2.98846 13.7754 2.82005 13.9697 2.61277 14.164C2.40549 14.3583 2.24355 14.5462 2.25651 14.5851C2.26946 14.6239 2.20469 14.6887 2.12048 14.7405C2.0298 14.7859 1.9715 14.8506 1.99093 14.8765C2.00389 14.9024 1.95207 14.9867 1.87434 15.0579C1.79661 15.1356 1.75775 15.1939 1.79661 15.1939C1.829 15.1939 1.80309 15.2263 1.74479 15.2652C1.68002 15.2976 1.6282 15.3753 1.6282 15.4271C1.6282 15.4789 1.59581 15.5048 1.56342 15.4854C1.52456 15.466 1.49865 15.466 1.49217 15.4984C1.47274 15.6992 1.4274 15.8093 1.34319 15.8546C1.29137 15.8805 1.20069 16.0619 1.13591 16.2433C1.07762 16.4311 0.986931 16.6254 0.935112 16.6708C0.857383 16.755 0.824995 16.8457 0.844428 16.9623C0.850905 16.9947 0.824995 17.0011 0.786131 16.9752C0.721356 16.9364 0.695447 17.0141 0.714879 17.2149C0.721356 17.2732 0.695447 17.338 0.656582 17.3639C0.624195 17.3833 0.591808 17.461 0.591808 17.5323C0.591808 17.5971 0.55942 17.6554 0.520556 17.6554C0.481691 17.6554 0.462259 17.7007 0.488169 17.7525C0.507601 17.8043 0.494646 17.8497 0.468736 17.8497C0.436349 17.8497 0.391007 17.9922 0.365097 18.1736C0.339188 18.3484 0.293845 18.4974 0.254981 18.4974C0.216116 18.4974 0.203161 18.5687 0.216116 18.6594C0.235548 18.75 0.222594 18.8213 0.183729 18.8213C0.151342 18.8213 0.138387 18.8925 0.151342 18.9832C0.170774 19.0739 0.164297 19.1452 0.138387 19.1452C0.08009 19.1452 0.0865674 19.0998 0.0347479 20.473C-0.0105941 21.6649 0.0865674 23.1547 0.216116 23.2324C0.248503 23.2519 0.254981 23.3555 0.229071 23.4527C0.196684 23.5757 0.209639 23.6211 0.254981 23.5887C0.293845 23.5628 0.339188 23.6729 0.365097 23.8737C0.391007 24.0486 0.436349 24.1976 0.475214 24.1976C0.514078 24.1976 0.527033 24.2688 0.501123 24.3725C0.468736 24.4955 0.475214 24.5279 0.520556 24.4631C0.565898 24.3919 0.591808 24.4502 0.624195 24.6704C0.650105 24.8388 0.695447 24.9554 0.727834 24.936C0.760221 24.9166 0.792608 24.949 0.792608 25.0008C0.805563 25.1303 0.81204 25.1627 0.902725 25.3829C0.948067 25.4866 0.980454 25.5773 0.980454 25.5902C0.980454 25.6032 1.06466 25.7392 1.1683 25.8947C1.26546 26.0501 1.38206 26.2574 1.41444 26.3675C1.45331 26.4712 1.51808 26.5554 1.55695 26.5424C1.59581 26.5359 1.6282 26.5554 1.6282 26.5942C1.6282 26.7302 1.64115 26.7562 1.73184 26.808C1.78366 26.8339 1.82252 26.8922 1.82252 26.9375C1.82252 26.9829 1.88082 27.0541 1.95207 27.0995C2.0298 27.1448 2.06866 27.2031 2.05571 27.2355C2.03628 27.2614 2.10753 27.365 2.21117 27.4622C2.32128 27.5529 2.40549 27.663 2.40549 27.7019C2.40549 27.799 2.70993 28.084 2.80709 28.084C2.84596 28.084 2.86539 28.097 2.84596 28.1164C2.79414 28.1682 3.70098 29.0621 3.76575 29.0233C3.79814 29.0038 3.87587 29.0751 3.94064 29.1852C3.99894 29.2953 4.08962 29.3666 4.12849 29.3536C4.17383 29.3342 4.22565 29.3666 4.24508 29.4184C4.26451 29.4702 4.32929 29.5091 4.38111 29.5091C4.43941 29.5091 4.47179 29.535 4.45236 29.5674C4.43293 29.5998 4.50418 29.6581 4.60782 29.7034C4.71794 29.7487 4.80214 29.8135 4.80214 29.8459C4.80214 29.8848 4.84748 29.8977 4.8993 29.8718C4.95112 29.8524 4.99647 29.8653 4.99647 29.8977C4.99647 29.9366 5.04181 29.9625 5.09363 29.9625C5.13897 29.9625 5.21022 30.0078 5.23613 30.0597C5.26852 30.1115 5.34625 30.1633 5.4175 30.1827C5.69603 30.241 5.83853 30.3058 5.80615 30.3576C5.78671 30.3835 5.8774 30.4289 6.00695 30.4548C6.13002 30.4742 6.25309 30.539 6.27252 30.5908C6.29843 30.6556 6.3632 30.6685 6.46037 30.6491C6.54457 30.6232 6.61583 30.6361 6.61583 30.6685C6.61583 30.7009 6.71946 30.7463 6.84254 30.7657C6.97208 30.7916 7.05629 30.8369 7.03686 30.8693C7.01743 30.8952 7.21823 30.96 7.47085 30.9989C7.72994 31.0442 7.95665 31.1025 7.97609 31.1284C8.02791 31.2062 8.46189 31.258 9.42703 31.3033C10.1525 31.3357 10.3339 31.3228 10.3792 31.2515C10.444 31.1414 10.4569 28.2719 10.3857 28.1812C10.2821 28.0387 10.0359 27.9545 9.71204 27.9545C9.28453 27.9545 8.53962 27.8379 8.49428 27.7602C8.47485 27.7343 8.35826 27.6889 8.23518 27.663C8.11211 27.6371 7.93074 27.6047 7.83358 27.5853C7.72994 27.5658 7.65221 27.527 7.65221 27.5011C7.65221 27.4752 7.55505 27.4169 7.44494 27.365C7.32834 27.3197 7.21823 27.2679 7.19879 27.242C7.14697 27.1837 6.78424 27.0217 6.73242 27.0347C6.70003 27.0412 6.6806 27.0153 6.6806 26.9829C6.6806 26.944 6.60935 26.8857 6.51866 26.8533C6.42798 26.8209 6.35673 26.7626 6.35673 26.7238C6.35673 26.6914 6.31786 26.659 6.27252 26.659C6.2207 26.659 6.11706 26.5877 6.03286 26.4971C5.94865 26.4064 5.85796 26.3351 5.82558 26.3351C5.74137 26.3351 4.86692 25.4542 4.86692 25.37C4.86692 25.3311 4.82157 25.2793 4.76328 25.2534C4.70498 25.234 4.67907 25.1757 4.70498 25.1174C4.72441 25.0591 4.72441 25.0332 4.6985 25.0591C4.65316 25.1044 4.51714 24.949 4.47179 24.8129C4.46532 24.7741 4.42645 24.7158 4.38759 24.6704C4.22565 24.4891 4.17383 24.4113 4.01189 24.1004C3.92121 23.919 3.82405 23.6794 3.79814 23.5628C3.77871 23.4527 3.72689 23.3555 3.68802 23.3555C3.64916 23.3555 3.6362 23.2972 3.65564 23.226C3.67507 23.1547 3.66211 23.0964 3.62973 23.0964C3.60382 23.0964 3.55847 22.9474 3.53256 22.7725C3.50665 22.5912 3.46779 22.4292 3.44188 22.4163C3.40949 22.3968 3.40302 22.2608 3.42245 22.1118C3.44836 21.924 3.44188 21.8592 3.39006 21.8916C3.33176 21.924 3.31233 21.6973 3.31233 21.0301C3.31233 20.3953 3.33176 20.1168 3.38358 20.1168C3.4354 20.1168 3.44188 20.0326 3.41597 19.8577C3.39654 19.7152 3.40302 19.5986 3.4354 19.5986C3.46131 19.5986 3.50665 19.4496 3.53256 19.2747C3.55847 19.0934 3.60382 18.9508 3.64268 18.9508C3.68155 18.9508 3.6945 18.8925 3.66859 18.8213C3.64268 18.75 3.65564 18.6917 3.6945 18.6917C3.73337 18.6917 3.76575 18.6464 3.76575 18.5816C3.76575 18.4197 4.20622 17.5258 4.28395 17.5258C4.32281 17.5258 4.33577 17.4934 4.31633 17.461C4.2969 17.4222 4.31633 17.3768 4.37463 17.3574C4.42645 17.338 4.45884 17.2861 4.43941 17.2343C4.41997 17.189 4.45236 17.1372 4.50418 17.1177C4.56248 17.0918 4.60782 17.04 4.60782 16.9947C4.60782 16.9493 4.66612 16.8716 4.73737 16.8262C4.8151 16.7809 4.86044 16.7226 4.84101 16.6967C4.80214 16.6319 5.92922 15.5178 6.02638 15.5178C6.05877 15.5178 6.11706 15.4725 6.14945 15.4206C6.17536 15.3623 6.29843 15.2717 6.40855 15.2069C7.41903 14.6693 7.78824 14.4879 7.98256 14.449C8.10564 14.4231 8.22223 14.3713 8.24166 14.3389C8.26109 14.3065 8.4036 14.2612 8.55258 14.2417C8.69508 14.2223 8.81815 14.1835 8.81815 14.164C8.81815 14.1381 8.92179 14.1316 9.05134 14.1446C9.2068 14.164 9.30396 14.1446 9.34283 14.0863C9.39465 14.0086 9.41408 14.0086 9.4659 14.0928C9.50476 14.1575 9.53067 14.164 9.53067 14.1057C9.53067 14.0474 9.75091 14.028 10.4116 14.028C11.0334 14.028 11.2731 14.0474 11.2407 14.0992C11.2148 14.1511 11.2925 14.164 11.4998 14.1511C11.6617 14.1381 11.7978 14.1446 11.7978 14.164C11.7978 14.1899 11.9468 14.2223 12.1216 14.2482C12.303 14.2741 12.4455 14.326 12.4455 14.3648C12.4455 14.3972 12.5038 14.4166 12.5751 14.3972C12.6463 14.3778 12.6917 14.3843 12.6722 14.4166C12.6593 14.4425 12.7564 14.4814 12.8925 14.5073C13.035 14.5268 13.158 14.5721 13.171 14.598C13.1775 14.6304 13.3847 14.747 13.6309 14.8636C13.8706 14.9802 14.0649 15.0968 14.0649 15.1227C14.0649 15.1486 14.1685 15.2069 14.2916 15.2587C14.4147 15.304 14.5248 15.3818 14.5442 15.4336C14.5636 15.4789 14.609 15.5178 14.6478 15.5178C14.745 15.5178 15.7749 16.5607 15.8721 16.7615C15.9239 16.8586 15.9887 16.9234 16.0211 16.904C16.047 16.8845 16.0729 16.9169 16.0729 16.9688C16.0729 17.0206 16.1117 17.0918 16.1571 17.1177C16.2478 17.1696 16.3579 17.3898 16.3449 17.474C16.3385 17.5064 16.3579 17.5258 16.3968 17.5258C16.4939 17.5258 16.766 18.1217 16.7336 18.2642C16.7206 18.3355 16.7336 18.3679 16.7789 18.342C16.8178 18.3161 16.8631 18.3938 16.889 18.5298C16.9085 18.6529 16.9603 18.7565 16.9927 18.7565C17.0315 18.7565 17.0445 18.8148 17.0251 18.8861C17.0056 18.9573 17.0186 19.0156 17.0445 19.0156C17.0769 19.0156 17.1222 19.1776 17.1417 19.3719C17.1676 19.5662 17.2129 19.7411 17.2388 19.7605C17.2647 19.78 17.2712 19.9225 17.2518 20.0844C17.2323 20.2787 17.2453 20.3759 17.2971 20.3759C17.3489 20.3759 17.3684 21.8268 17.3684 25.8493V31.3228L18.9748 31.3098L20.5747 31.2904L20.5682 25.4931C20.5617 18.9508 20.5617 19.1452 20.4775 19.1452C20.4387 19.1452 20.4257 19.0351 20.4516 18.8666C20.4775 18.6658 20.4711 18.6205 20.4192 18.6917C20.3674 18.7695 20.348 18.7436 20.348 18.5816C20.348 18.4715 20.3156 18.3549 20.2832 18.3355C20.2444 18.3096 20.2314 18.2383 20.2508 18.1671C20.2767 18.0958 20.2638 18.044 20.2184 18.044C20.1731 18.044 20.1601 17.9922 20.1861 17.9145C20.212 17.8432 20.199 17.7849 20.1601 17.7849C20.1213 17.7849 20.0954 17.7655 20.1019 17.7331C20.1213 17.6424 20.0112 17.3315 19.9593 17.3315C19.927 17.3315 19.8687 17.1696 19.8298 16.9688C19.7845 16.7744 19.7391 16.6254 19.7132 16.6514C19.6549 16.7032 19.4347 16.2238 19.4865 16.1461C19.5059 16.1137 19.4994 16.1008 19.4606 16.1202C19.4217 16.1461 19.3634 16.0425 19.3181 15.9C19.2727 15.7575 19.2144 15.6603 19.1821 15.6797C19.1561 15.6992 19.1108 15.6279 19.0849 15.5178C19.059 15.4142 19.0007 15.3235 18.9553 15.3235C18.91 15.3235 18.8517 15.2781 18.8323 15.2198C18.8064 15.1551 18.8193 15.1356 18.8776 15.1615C18.9165 15.1875 18.8776 15.1292 18.7805 15.045C18.6833 14.9543 18.6185 14.8701 18.6379 14.8571C18.6509 14.8377 18.5797 14.747 18.4695 14.6563C18.3659 14.5591 18.2752 14.4425 18.2752 14.3907C18.2752 14.3389 18.1975 14.2547 18.1068 14.1964C18.0161 14.1316 17.8347 13.9632 17.7052 13.8207C17.2064 13.2701 16.9409 13.0175 16.8761 13.0369C16.8372 13.0499 16.766 12.9851 16.7206 12.8944C16.6688 12.7973 16.5911 12.7455 16.5457 12.7649C16.4939 12.7778 16.4745 12.7714 16.4939 12.739C16.5133 12.7066 16.468 12.6613 16.3968 12.6353C16.3255 12.6159 16.2672 12.5706 16.2672 12.5382C16.2672 12.5058 16.2283 12.4928 16.1765 12.5123C16.1312 12.5317 16.0729 12.4993 16.0535 12.4475C16.0275 12.3892 15.9692 12.3439 15.9174 12.3439C15.8721 12.3439 15.8138 12.305 15.7944 12.2532C15.7749 12.2014 15.6713 12.1431 15.5612 12.1171C15.4381 12.0912 15.3733 12.0459 15.4057 12.0006C15.4316 11.9617 15.4057 11.9487 15.3409 11.9746C15.2762 11.9941 15.2308 11.9941 15.2308 11.9617C15.2308 11.9293 15.1596 11.884 15.0689 11.8645C14.9652 11.8386 14.9199 11.7933 14.9458 11.7479C14.9782 11.7026 14.9458 11.6896 14.8551 11.7091C14.7774 11.735 14.7126 11.722 14.7126 11.6832C14.7126 11.6443 14.6738 11.6313 14.6284 11.6508C14.5766 11.6702 14.4989 11.6313 14.4535 11.5601C14.4017 11.4953 14.2139 11.4046 14.0195 11.3658C13.8317 11.3204 13.6762 11.2621 13.6762 11.2233C13.6762 11.1909 13.605 11.1844 13.5208 11.2038C13.4301 11.2233 13.3524 11.2103 13.3394 11.1714C13.3265 11.1326 13.1969 11.0872 13.0414 11.0678C12.8925 11.0484 12.7694 11.003 12.7694 10.9706C12.7694 10.9318 12.6852 10.9188 12.5751 10.9318C12.4714 10.9512 12.3807 10.9318 12.3807 10.9059C12.3807 10.8735 12.2771 10.854 12.1605 10.8605C12.0374 10.8735 11.9144 10.8605 11.8885 10.8346C11.8625 10.8087 11.6423 10.7893 11.3962 10.7893C11.1112 10.7893 10.9622 10.7634 10.9881 10.7245C11.014 10.6856 10.7743 10.6597 10.308 10.6597C9.84159 10.6597 9.60192 10.6856 9.62783 10.7245Z" fill="#E4DDD4"/>
<path d="M73.2687 10.7179C73.2687 10.7503 73.0355 10.7956 72.7505 10.8215C72.4655 10.8474 72.2323 10.8928 72.2323 10.9251C72.2323 10.9575 72.1999 10.9834 72.1611 10.9834C72.1287 10.9834 72.1092 10.9575 72.1287 10.9316C72.174 10.8604 71.7595 10.9187 71.7076 10.9899C71.6882 11.0223 71.5068 11.0806 71.2931 11.1195C71.0858 11.1583 70.8785 11.2296 70.8267 11.2814C70.7749 11.3332 70.6777 11.3721 70.6065 11.3721C70.5417 11.3721 70.4834 11.4045 70.4834 11.4433C70.4834 11.4822 70.4251 11.4952 70.3474 11.4693C70.2632 11.4369 70.2243 11.4498 70.2502 11.4887C70.2697 11.5275 70.1531 11.5858 69.9652 11.6312C69.7838 11.6765 69.6413 11.7348 69.6413 11.7672C69.6413 11.7931 69.5247 11.8579 69.3822 11.8968C69.2397 11.9421 69.1231 12.0004 69.1231 12.0328C69.1231 12.0652 69.0389 12.1235 68.9288 12.1559C68.8252 12.1947 68.7475 12.253 68.7669 12.2789C68.8058 12.3372 68.6049 12.4409 68.4041 12.4668C68.3718 12.4668 68.3523 12.4992 68.3782 12.5316C68.3977 12.5639 68.307 12.6287 68.1839 12.6676C68.0608 12.7064 67.9702 12.7647 67.9831 12.7906C68.0025 12.8166 67.9313 12.8684 67.8341 12.9137C67.737 12.9591 67.6204 13.0692 67.575 13.1599C67.5362 13.2505 67.4714 13.3153 67.4261 13.3024C67.3418 13.27 66.5775 14.0019 66.5127 14.1768C66.4868 14.2416 66.4415 14.274 66.4026 14.2546C66.3702 14.2351 66.3573 14.2546 66.3702 14.3064C66.3897 14.3517 66.3378 14.4294 66.2472 14.4813C66.1565 14.5266 66.0787 14.6238 66.0658 14.7015C66.0528 14.7792 66.0075 14.831 65.9622 14.8181C65.9103 14.8116 65.8909 14.831 65.9168 14.8699C65.9362 14.9023 65.9233 14.9347 65.8909 14.9347C65.852 14.9347 65.8197 14.9735 65.8197 15.0254C65.8197 15.0772 65.7808 15.1614 65.7354 15.2067C65.6901 15.2521 65.6318 15.3428 65.6059 15.4011C65.5865 15.4658 65.5217 15.5177 65.4699 15.5177C65.4181 15.5177 65.3792 15.5695 65.3857 15.6278C65.3921 15.7573 65.1849 16.1006 65.1071 16.1006C65.0747 16.1006 65.0359 16.1848 65.01 16.2949C64.9841 16.3986 64.9452 16.4893 64.9193 16.4893C64.8869 16.4893 64.8156 16.6771 64.7509 16.9103C64.6926 17.1435 64.6148 17.3313 64.5889 17.3313C64.5436 17.3313 64.4335 17.6552 64.4594 17.7135C64.4659 17.7265 64.44 17.7588 64.3946 17.7848C64.3558 17.8107 64.291 18.0244 64.2521 18.2641C64.2003 18.562 64.1614 18.6722 64.1226 18.6139C64.0837 18.5556 64.0707 18.6074 64.0902 18.7628C64.1096 18.8924 64.0967 19.0284 64.0643 19.0608C64.0319 19.0932 63.9865 19.4495 63.9606 19.8446C63.9412 20.2462 63.8959 20.5701 63.8635 20.5701C63.8376 20.5701 63.8116 20.7773 63.8116 21.03C63.8116 21.2761 63.8376 21.4704 63.8635 21.451C63.8959 21.4316 63.9412 21.7554 63.9606 22.17C63.9865 22.5845 64.0319 22.9537 64.0643 22.9861C64.0967 23.0185 64.1096 23.1546 64.0902 23.2841C64.0707 23.4396 64.0772 23.4914 64.1226 23.4331C64.1614 23.3683 64.1938 23.4396 64.2262 23.6727C64.2521 23.8541 64.3039 24.0031 64.3428 24.0031C64.3817 24.0031 64.3946 24.0614 64.3752 24.1456C64.3493 24.2298 64.3881 24.3529 64.4659 24.4695C64.5436 24.5731 64.5825 24.6962 64.563 24.748C64.5436 24.7998 64.5566 24.8452 64.5889 24.8452C64.6213 24.8452 64.6278 24.8905 64.6084 24.9553C64.5825 25.0201 64.5954 25.046 64.6343 25.0201C64.712 24.9747 64.8027 25.1496 64.7509 25.2338C64.7314 25.2597 64.7574 25.2986 64.8092 25.318C64.8675 25.3439 64.8869 25.4087 64.8675 25.4994C64.8416 25.5965 64.848 25.6289 64.8999 25.5965C64.9452 25.5706 64.9841 25.5836 64.9841 25.616C64.9905 25.6548 65.0035 25.7131 65.01 25.752C65.0164 25.7844 65.0294 25.8492 65.0359 25.888C65.0359 25.9204 65.0683 25.9398 65.1071 25.9139C65.1395 25.8945 65.1978 25.9917 65.2367 26.1342C65.2691 26.2702 65.3468 26.4062 65.4051 26.4257C65.4569 26.4451 65.4893 26.4904 65.4634 26.5293C65.444 26.5617 65.4828 26.6265 65.5606 26.6718C65.6318 26.7171 65.6901 26.7884 65.6901 26.8273C65.6901 26.8661 65.7354 26.9374 65.7873 26.9827C65.8456 27.0281 65.8715 27.0799 65.852 27.0993C65.8391 27.1187 65.8974 27.1965 65.9881 27.2742C66.0852 27.3584 66.137 27.4556 66.1176 27.4944C66.0917 27.5333 66.0982 27.5657 66.1241 27.5657C66.2213 27.5657 66.6034 27.9543 66.571 28.0126C66.5516 28.0385 66.6099 28.0968 66.7006 28.1422C66.7913 28.181 66.8496 28.2393 66.8301 28.2717C66.8107 28.2976 66.869 28.3559 66.9597 28.4013C67.0504 28.4401 67.1087 28.4984 67.0892 28.5308C67.0698 28.5632 67.141 28.6215 67.2447 28.6669C67.3548 28.7122 67.4908 28.8353 67.5491 28.9324C67.6528 29.1073 67.7175 29.1462 67.8406 29.1267C67.8665 29.1267 67.9378 29.1915 67.9961 29.2822C68.0544 29.3729 68.1451 29.4441 68.1904 29.4441C68.2422 29.4441 68.3005 29.4895 68.3264 29.5478C68.3459 29.5996 68.3977 29.632 68.443 29.6126C68.4948 29.5931 68.5467 29.6255 68.5661 29.6773C68.5855 29.7291 68.6503 29.768 68.7021 29.768C68.7604 29.768 68.7928 29.7939 68.7669 29.8263C68.7475 29.8587 68.8446 29.9235 68.9742 29.9688C69.1102 30.0077 69.2397 30.0789 69.2656 30.1243C69.2916 30.1696 69.4211 30.2279 69.5442 30.2473C69.6737 30.2733 69.7579 30.3186 69.7385 30.351C69.6932 30.4222 69.9393 30.5064 70.03 30.4481C70.0624 30.4287 70.0948 30.4417 70.0948 30.4741C70.0948 30.5129 70.1401 30.5453 70.1919 30.5453C70.2437 30.5453 70.2891 30.5647 70.2891 30.5971C70.2891 30.6489 70.749 30.8044 70.9044 30.8044C70.9563 30.8044 71.0016 30.8368 71.0016 30.8757C71.0016 30.9145 71.0599 30.9275 71.1312 30.9016C71.2024 30.8821 71.2607 30.8886 71.2607 30.921C71.2607 30.9599 71.4097 31.0052 71.5846 31.0311C71.7789 31.057 71.8955 31.1024 71.8696 31.1412C71.8437 31.1866 71.9084 31.1995 72.0639 31.1801C72.1935 31.1671 72.2971 31.1801 72.2971 31.2125C72.2971 31.2449 72.4137 31.2578 72.5562 31.2513C72.6922 31.2384 72.8282 31.2513 72.8541 31.2773C72.8801 31.3032 73.042 31.3226 73.2169 31.3226C73.3853 31.3226 73.5278 31.3485 73.5278 31.3874C73.5278 31.4198 73.5602 31.4521 73.5991 31.4521C73.6314 31.4521 73.6444 31.4198 73.625 31.3874C73.5991 31.3485 73.7351 31.3226 73.9812 31.3226H74.3699L74.3569 29.6838C74.3375 28.1681 74.331 28.0515 74.2274 28.0709C74.1626 28.0839 74.1108 28.058 74.1108 28.0191C74.1108 27.9673 73.9553 27.9479 73.6703 27.9608C73.4242 27.9673 73.1975 27.9608 73.1651 27.9414C73.1327 27.9219 72.9384 27.8831 72.7376 27.8636C72.5303 27.8377 72.3619 27.7859 72.3619 27.7535C72.3619 27.7147 72.31 27.6952 72.2517 27.7082C72.187 27.7147 72.0056 27.6628 71.8437 27.5851C71.6817 27.5139 71.4421 27.4167 71.3125 27.3714C71.1765 27.3325 71.0664 27.2677 71.0664 27.2353C71.0664 27.2029 71.0405 27.177 71.0081 27.177C70.9304 27.177 70.1854 26.7236 70.2632 26.7236C70.2956 26.7236 70.2178 26.6718 70.0948 26.6135C69.9717 26.5487 69.8292 26.4451 69.7774 26.3738C69.7255 26.3091 69.6284 26.2054 69.5571 26.1471C69.4859 26.0888 69.3758 25.9852 69.3045 25.9139C68.8187 25.3957 68.6697 25.2273 68.6697 25.169C68.6697 25.1302 68.6244 25.0848 68.5726 25.0654C68.5207 25.0395 68.4754 24.9877 68.4754 24.9358C68.4754 24.8905 68.4236 24.8257 68.3653 24.7869C68.3005 24.7545 68.2681 24.7091 68.294 24.6832C68.3135 24.6573 68.2811 24.5861 68.2098 24.5148C68.1386 24.4436 68.0997 24.3529 68.1256 24.314C68.1515 24.2751 68.1451 24.2622 68.1062 24.2816C68.022 24.3334 67.6528 23.5367 67.5945 23.1805C67.575 23.025 67.5297 22.9149 67.5038 22.9343C67.439 22.9732 67.3095 22.1765 67.3095 21.7489C67.3159 21.5546 67.29 21.4121 67.2512 21.4121C67.2058 21.4121 67.1799 21.2502 67.1799 21.0235C67.1799 20.8097 67.2058 20.6348 67.2447 20.6348C67.2836 20.6348 67.3095 20.5053 67.3095 20.3433C67.3095 19.8834 67.4455 19.0802 67.5167 19.1191C67.5556 19.145 67.5686 19.1062 67.5426 19.0284C67.5167 18.9572 67.5232 18.8794 67.5556 18.86C67.5945 18.8406 67.6398 18.7175 67.6592 18.5944C67.6916 18.4519 67.7305 18.3807 67.7758 18.4066C67.8212 18.4325 67.8277 18.4195 67.8017 18.3742C67.7175 18.2447 68.3199 17.15 68.6179 16.8714C68.6827 16.8131 68.7151 16.7548 68.7021 16.7354C68.6827 16.716 68.741 16.6512 68.8317 16.5929C68.9223 16.5346 68.9936 16.4569 68.9936 16.418C68.9936 16.3144 69.1685 16.1654 69.2203 16.2172C69.2527 16.2431 69.2527 16.2302 69.2333 16.1913C69.1814 16.1006 69.4017 15.8869 69.4794 15.9516C69.5053 15.984 69.5118 15.9646 69.4859 15.9193C69.46 15.8739 69.4859 15.8221 69.5571 15.7962C69.6219 15.7767 69.7515 15.6731 69.8551 15.5695C69.9523 15.4658 70.03 15.4011 70.03 15.427C70.03 15.4529 70.0883 15.414 70.1595 15.3363C70.2373 15.2586 70.3409 15.1938 70.3927 15.1938C70.4445 15.1938 70.4769 15.1679 70.4575 15.1355C70.4381 15.1031 70.4899 15.0578 70.5741 15.0383C70.6648 15.0189 70.7749 14.9606 70.8202 14.9152C70.9239 14.8181 71.2737 14.6497 71.3449 14.6626C71.3708 14.6691 71.3902 14.6432 71.3902 14.6043C71.3902 14.5719 71.4162 14.5525 71.4485 14.5784C71.4809 14.5979 71.5263 14.5849 71.5457 14.5525C71.5716 14.5201 71.7012 14.4748 71.8437 14.4489C71.9862 14.423 72.1028 14.3776 72.1028 14.3452C72.1028 14.3128 72.1222 14.2934 72.1546 14.2999C72.1805 14.3064 72.2712 14.2869 72.3619 14.2675C72.5821 14.2092 72.8736 14.1703 73.1262 14.1639C73.2493 14.1574 73.327 14.1315 73.3011 14.0926C73.2752 14.0538 73.5731 14.0278 74.1367 14.0278C74.7974 14.0278 75.0176 14.0473 75.0176 14.1056C75.0176 14.1639 75.0435 14.1574 75.0824 14.0926C75.1342 14.0084 75.1536 14.0084 75.2055 14.0861C75.2443 14.1444 75.3415 14.1639 75.4969 14.1444C75.6265 14.1315 75.7301 14.138 75.7301 14.1639C75.7301 14.1833 75.8532 14.2222 75.9957 14.2416C76.1447 14.261 76.2872 14.3064 76.3066 14.3452C76.3325 14.3776 76.475 14.4294 76.624 14.4554C76.773 14.4813 76.9155 14.5266 76.9349 14.5525C76.9544 14.5849 76.9997 14.5979 77.0321 14.5784C77.0645 14.5525 77.0904 14.5655 77.0904 14.5979C77.0904 14.6302 77.207 14.6885 77.3495 14.7339C77.492 14.7727 77.6086 14.831 77.6086 14.8634C77.6086 14.8893 77.7122 14.9476 77.8353 14.9995C77.9584 15.0513 78.062 15.1161 78.062 15.142C78.062 15.1743 78.1333 15.2262 78.2239 15.2586C78.3146 15.2909 78.3859 15.3492 78.3859 15.3881C78.3859 15.427 78.4118 15.4464 78.4442 15.4205C78.4766 15.4011 78.5608 15.4594 78.632 15.55C78.7033 15.6407 78.794 15.712 78.8328 15.712C78.8717 15.712 78.9041 15.7379 78.9041 15.7767C78.9041 15.8091 78.9429 15.8415 78.9883 15.8415C79.0919 15.8415 79.4676 16.2237 79.5 16.3532C79.513 16.4051 79.6101 16.5281 79.7202 16.6318C79.8368 16.7289 79.9469 16.8909 79.9664 16.9816C79.9923 17.0787 80.0376 17.1241 80.083 17.0981C80.1283 17.0658 80.1413 17.0852 80.1154 17.1564C80.0959 17.2083 80.1154 17.2666 80.1542 17.286C80.1996 17.3054 80.2773 17.3961 80.3291 17.4997C80.3809 17.6034 80.4781 17.7588 80.5364 17.8495C80.6012 17.9402 80.6595 18.0698 80.6724 18.141C80.6789 18.2123 80.7372 18.3677 80.7955 18.4843C80.8538 18.6009 80.8862 18.7434 80.8667 18.8017C80.8408 18.8665 80.8538 18.8924 80.8927 18.8665C80.938 18.8341 80.9833 18.9377 81.0092 19.145C81.0352 19.3199 81.0805 19.4883 81.1129 19.5078C81.1453 19.5272 81.1582 19.6438 81.1323 19.7669C81.1064 19.9094 81.1194 19.9871 81.1647 19.9871C81.2165 19.9871 81.236 21.5158 81.236 25.5512C81.236 28.615 81.2554 31.1607 81.2748 31.219C81.3072 31.3096 81.508 31.3226 82.8683 31.3226C83.8852 31.3226 84.4034 31.342 84.3775 31.3874C84.3581 31.4262 84.3646 31.4521 84.3969 31.4521C84.4358 31.4521 84.4812 31.4068 84.5006 31.3485C84.52 31.2902 84.5394 28.8223 84.5394 25.8621C84.5394 20.6802 84.4941 19.0997 84.3386 18.9118C84.2998 18.8665 84.2933 18.7564 84.3192 18.6527C84.3516 18.5426 84.3386 18.4908 84.2998 18.5167C84.235 18.5556 84.1508 18.2835 84.1443 18.0244C84.1443 17.9661 84.1119 17.9143 84.0731 17.9143C84.0342 17.9143 84.0213 17.856 84.0407 17.7848C84.0601 17.7135 84.0407 17.6552 84.0018 17.6552C83.963 17.6552 83.9565 17.6358 83.9759 17.6099C84.0018 17.5904 83.9759 17.4997 83.9176 17.4091C83.8658 17.3249 83.8334 17.2147 83.8528 17.1629C83.8723 17.1176 83.8205 16.9945 83.7362 16.8909C83.652 16.7937 83.5678 16.6512 83.5549 16.5864C83.5484 16.5152 83.5225 16.4439 83.5031 16.4245C83.4059 16.3338 83.244 16.0294 83.244 15.9387C83.244 15.8869 83.1921 15.7897 83.1338 15.7249C83.0691 15.6602 82.9719 15.5241 82.9201 15.4205C82.8683 15.3104 82.7841 15.2003 82.7452 15.1743C82.6999 15.1484 82.661 15.0837 82.661 15.0448C82.661 14.9995 82.6027 14.9152 82.5314 14.8505C82.4602 14.7922 82.4019 14.7015 82.4019 14.6562C82.4019 14.6108 82.3112 14.5072 82.2011 14.423C82.091 14.3388 82.0197 14.261 82.0392 14.2416C82.0845 14.1963 81.2813 13.3801 81.1906 13.3801C81.1582 13.3801 81.0222 13.2635 80.8927 13.121C80.7696 12.9785 80.6141 12.8619 80.5558 12.8619C80.4975 12.8619 80.4651 12.836 80.4846 12.8036C80.5105 12.7712 80.4392 12.7064 80.3291 12.6546C80.2255 12.6093 80.1348 12.551 80.1348 12.5186C80.1348 12.4927 80.0635 12.4409 79.9729 12.4085C79.8822 12.3761 79.8109 12.3178 79.8109 12.2854C79.8109 12.2465 79.7656 12.2336 79.7138 12.253C79.6619 12.2789 79.6166 12.2595 79.6166 12.2206C79.6166 12.1818 79.5713 12.1494 79.5194 12.1494C79.4611 12.1494 79.4028 12.1105 79.3834 12.0587C79.364 12.0134 79.2344 11.9356 79.0919 11.8903C78.9559 11.8449 78.8393 11.7866 78.8393 11.7607C78.8393 11.7283 78.7098 11.6701 78.5543 11.6247C78.3924 11.5794 78.2822 11.5146 78.3017 11.4757C78.3276 11.4433 78.2822 11.4304 78.2045 11.4498C78.1268 11.4757 78.062 11.4628 78.062 11.4304C78.062 11.398 78.0037 11.3721 77.9389 11.3721C77.8677 11.3721 77.7705 11.3332 77.7187 11.2814C77.6734 11.2296 77.4078 11.1519 77.1357 11.1065C76.8572 11.0612 76.637 10.9964 76.637 10.964C76.637 10.9316 76.5657 10.9187 76.475 10.9316C76.3908 10.9511 76.3066 10.9381 76.3001 10.9122C76.2872 10.8798 75.9828 10.8345 75.62 10.815C75.2508 10.7891 74.9528 10.7438 74.9528 10.7114C74.9528 10.6855 74.629 10.6596 74.2338 10.6596C73.7739 10.6596 73.5343 10.6855 73.5602 10.7243C73.5796 10.7567 73.5408 10.7891 73.463 10.7891C73.3853 10.7891 73.3464 10.7567 73.3659 10.7243C73.3853 10.6855 73.3723 10.6596 73.34 10.6596C73.3011 10.6596 73.2687 10.6855 73.2687 10.7179Z" fill="#E4DDD4"/>
</svg>
